<?xml version="1.0" encoding="iso-8859-1"?>
<!-- Generator: Adobe Illustrator 19.0.0, SVG Export Plug-In . SVG Version: 6.00 Build 0)  -->
<svg version="1.1" id="Capa_1" xmlns="http://www.w3.org/2000/svg" xmlns:xlink="http://www.w3.org/1999/xlink" x="0px" y="0px"
	 viewBox="0 0 478.923 478.923" style="enable-background:new 0 0 478.923 478.923;" xml:space="preserve">
<g>
	<path d="M424.489,32.654c-18.003,0-32.654,14.629-32.654,32.654c0,18.003-14.651,32.654-32.654,32.654
		s-32.654-14.651-32.654-32.654C326.528,29.323,297.226,0,261.242,0c-36.006,0-65.308,29.323-65.308,65.308v43.538H163.28
		c-6.008,0-10.885,4.876-10.885,10.885v23.75C86.979,169.974,43.549,233.802,43.549,304.769c0,96.024,78.13,174.154,174.154,174.154
		s174.132-78.13,174.132-174.154c0-70.968-43.408-134.795-108.824-161.288v-23.75c0-6.008-4.876-10.885-10.885-10.885h-54.423
		V65.308c0-24.033,19.505-43.538,43.538-43.538c24.011,0,43.517,19.505,43.517,43.538c0,29.998,24.425,54.423,54.423,54.423
		c30.02,0,54.423-24.425,54.423-54.423c0-5.987,4.898-10.885,10.885-10.885c6.008,0,10.885-4.898,10.885-10.885
		C435.374,37.53,430.497,32.654,424.489,32.654z M155.465,215.472c-49.242,34.33-61.367,102.294-27.037,151.557
		c3.418,4.92,2.199,11.668-2.743,15.13c-1.894,1.306-4.071,1.916-6.204,1.916c-3.44,0-6.814-1.589-8.925-4.615
		c-19.962-28.648-27.582-63.305-21.421-97.657c6.117-34.352,25.274-64.241,53.901-84.182c4.942-3.44,11.712-2.264,15.151,2.678
		C161.604,205.24,160.385,212.032,155.465,215.472z"/>
</g>
<g>
</g>
<g>
</g>
<g>
</g>
<g>
</g>
<g>
</g>
<g>
</g>
<g>
</g>
<g>
</g>
<g>
</g>
<g>
</g>
<g>
</g>
<g>
</g>
<g>
</g>
<g>
</g>
<g>
</g>
</svg>
